<svg width="408" height="408" viewBox="0 0 408 408" fill="none" xmlns="http://www.w3.org/2000/svg">
<g filter="url(#filter0_d_30_123)">
<g clip-path="url(#clip0_30_123)">
<rect width="400" height="400" transform="translate(4)" fill="white"/>
<path d="M401.491 0H4V400L401.491 0Z" fill="#CFF1FF"/>
<path d="M401.491 0L4 400L404 397.007L401.491 0Z" fill="#FFBEBE"/>
<path d="M401.491 0H4V400M401.491 0L4 400M401.491 0L404 397.007L4 400" stroke="#CFF1FF"/>
<g filter="url(#filter1_d_30_123)">
<path d="M325.066 233.64V335.144L282.314 335.784C274.378 335.955 268.405 334.163 264.394 330.408C260.298 326.739 258.25 321.277 258.25 314.024V295.848C258.25 285.011 262.943 278.141 272.33 275.24C269.77 273.448 267.637 270.077 265.93 265.128L254.794 233.64H271.05L283.85 271.4C284.106 272.168 284.405 272.68 284.746 272.936C285.002 273.277 285.557 273.448 286.41 273.448H308.938V233.64H325.066ZM276.81 321.704H308.938V287.272H276.81C275.445 287.272 274.762 287.997 274.762 289.448V319.656C274.762 321.021 275.445 321.704 276.81 321.704Z" fill="black" fill-opacity="0.2" shape-rendering="crispEdges"/>
<path d="M215.151 233C223.002 233 229.018 234.877 233.199 238.632C237.38 242.472 239.471 247.933 239.471 255.016V271.144C239.471 279.592 236.228 285.224 229.743 288.04C232.644 289.491 234.863 291.496 236.399 294.056C237.935 296.701 238.703 299.944 238.703 303.784V314.024C238.703 328.531 230.682 335.784 214.639 335.784H199.023C183.066 335.784 175.087 328.531 175.087 314.024V305.576H191.471V319.144C191.471 320.595 192.154 321.32 193.519 321.32H220.143C221.508 321.32 222.191 320.595 222.191 319.144V295.848C222.191 294.483 221.508 293.8 220.143 293.8H201.455V281.896H220.911C222.276 281.896 222.959 281.213 222.959 279.848V249.64C222.959 248.275 222.276 247.592 220.911 247.592H192.751C191.386 247.592 190.703 248.275 190.703 249.64V271.144C190.703 278.227 188.826 283.432 185.071 286.76C181.316 290.173 175.471 291.88 167.535 291.88H162.671L162.799 277.16H172.271C173.636 277.16 174.319 276.477 174.319 275.112V255.016C174.319 247.933 176.41 242.472 180.591 238.632C184.687 234.877 190.66 233 198.511 233H215.151Z" fill="black" fill-opacity="0.2" shape-rendering="crispEdges"/>
<path d="M146.816 233.64V335.144L103.936 335.784C95.9999 335.955 90.0266 334.163 86.0159 330.408C82.0052 326.739 79.9999 321.277 79.9999 314.024V293.288C79.9999 286.461 82.0052 281.043 86.0159 277.032C90.0266 273.107 95.9999 271.144 103.936 271.144H130.688V233.64H146.816ZM98.5599 321.704H130.688V285.096H98.5599C97.1946 285.096 96.5119 285.779 96.5119 287.144V319.656C96.5119 321.021 97.1946 321.704 98.5599 321.704Z" fill="black" fill-opacity="0.2" shape-rendering="crispEdges"/>
<path d="M199.023 336.284C190.979 336.284 184.852 334.457 180.735 330.714C176.609 326.963 174.586 321.367 174.586 314.024V305.076H191.971V319.144C191.971 319.799 192.126 320.199 192.347 320.434C192.563 320.663 192.922 320.82 193.519 320.82H220.143C220.74 320.82 221.099 320.663 221.315 320.434C221.536 320.199 221.691 319.799 221.691 319.144V295.848C221.691 295.242 221.54 294.88 221.326 294.665C221.111 294.451 220.749 294.3 220.143 294.3H200.955V281.396H220.911C221.516 281.396 221.879 281.245 222.093 281.03C222.308 280.816 222.458 280.453 222.458 279.848V249.64C222.458 249.034 222.308 248.672 222.093 248.457C221.879 248.243 221.516 248.092 220.911 248.092H192.75C192.145 248.092 191.783 248.243 191.569 248.457C191.354 248.672 191.203 249.034 191.203 249.64V271.144C191.203 278.306 189.304 283.673 185.408 287.13C181.521 290.663 175.528 292.38 167.535 292.38H162.167L162.171 291.875L162.299 277.155L162.303 276.66H172.271C172.877 276.66 173.239 276.509 173.454 276.294C173.668 276.08 173.819 275.717 173.819 275.112V255.016C173.819 247.831 175.944 242.221 180.252 238.264H180.253C184.474 234.395 190.587 232.5 198.511 232.5H215.151C223.076 232.5 229.229 234.395 233.533 238.26L233.538 238.264C237.846 242.221 239.971 247.831 239.971 255.016V271.144C239.971 275.43 239.148 279.042 237.472 281.953C235.95 284.597 233.738 286.634 230.858 288.07C233.406 289.513 235.401 291.421 236.828 293.799L236.832 293.805C238.422 296.544 239.203 299.878 239.203 303.784V314.024C239.203 321.368 237.17 326.964 233.022 330.715C228.884 334.457 222.726 336.284 214.639 336.284H199.023ZM282.322 336.283C274.32 336.455 268.202 334.652 264.061 330.78C259.828 326.988 257.75 321.371 257.75 314.024V295.848C257.75 290.359 258.939 285.826 261.357 282.286C263.623 278.969 266.942 276.565 271.278 275.059C268.939 273.08 267.012 269.799 265.458 265.295L254.323 233.807L254.086 233.14H271.409L271.524 233.48L284.324 271.239L284.325 271.241C284.573 271.987 284.832 272.375 285.046 272.536L285.103 272.579L285.146 272.636C285.191 272.696 285.289 272.777 285.5 272.842C285.713 272.908 286.012 272.948 286.41 272.948H308.438V233.14H325.566V335.637L325.074 335.644L282.322 336.284V336.283ZM103.944 336.283C95.9392 336.455 89.819 334.651 85.6782 330.777L85.2964 330.416C81.4079 326.632 79.4995 321.139 79.4995 314.024V293.288C79.4995 286.358 81.5396 280.802 85.6626 276.679L85.6665 276.675C89.8035 272.626 95.9239 270.644 103.936 270.644H130.188V233.14H147.316V335.637L146.824 335.644L103.944 336.284V336.283ZM130.188 285.596H98.5601C97.9546 285.596 97.592 285.747 97.3774 285.961C97.163 286.176 97.0122 286.538 97.0122 287.144V319.656C97.0123 320.262 97.1631 320.624 97.3774 320.838C97.5919 321.053 97.9545 321.204 98.5601 321.204H130.188V285.596ZM308.438 287.772H276.81C276.213 287.772 275.854 287.929 275.638 288.158C275.417 288.394 275.262 288.793 275.262 289.448V319.656C275.262 320.262 275.413 320.624 275.627 320.838C275.842 321.053 276.204 321.204 276.81 321.204H308.438V287.772Z" stroke="#76D8F1" stroke-opacity="0.5" shape-rendering="crispEdges"/>
</g>
<g filter="url(#filter2_d_30_123)">
<g filter="url(#filter3_d_30_123)">
<path d="M85 226.155V124.651L127.752 124.011C135.688 123.84 141.661 125.632 145.672 129.387C149.768 133.056 151.816 138.518 151.816 145.771V163.947C151.816 174.784 147.123 181.654 137.736 184.555C140.296 186.347 142.429 189.718 144.136 194.667L155.272 226.155H139.016L126.216 188.395C125.96 187.627 125.661 187.115 125.32 186.859C125.064 186.518 124.509 186.347 123.656 186.347H101.128V226.155H85ZM133.256 138.091H101.128V172.523H133.256C134.621 172.523 135.304 171.798 135.304 170.347V140.139C135.304 138.774 134.621 138.091 133.256 138.091Z" fill="black" shape-rendering="crispEdges"/>
<path d="M194.915 226.795C187.064 226.795 181.048 224.918 176.867 221.163C172.686 217.323 170.595 211.862 170.595 204.779V188.651C170.595 180.203 173.838 174.571 180.323 171.755C177.422 170.304 175.203 168.299 173.667 165.739C172.131 163.094 171.363 159.851 171.363 156.011V145.771C171.363 131.264 179.384 124.011 195.427 124.011H211.043C227 124.011 234.979 131.264 234.979 145.771V154.219H218.595V140.651C218.595 139.2 217.912 138.475 216.547 138.475H189.923C188.558 138.475 187.875 139.2 187.875 140.651V163.947C187.875 165.312 188.558 165.995 189.923 165.995H208.611V177.899H189.155C187.79 177.899 187.107 178.582 187.107 179.947V210.155C187.107 211.52 187.79 212.203 189.155 212.203H217.315C218.68 212.203 219.363 211.52 219.363 210.155V188.651C219.363 181.568 221.24 176.363 224.995 173.035C228.75 169.622 234.595 167.915 242.531 167.915H247.395L247.267 182.635H237.795C236.43 182.635 235.747 183.318 235.747 184.683V204.779C235.747 211.862 233.656 217.323 229.475 221.163C225.379 224.918 219.406 226.795 211.555 226.795H194.915Z" fill="black" shape-rendering="crispEdges"/>
<path d="M263.25 226.155V124.651L306.13 124.011C314.066 123.84 320.039 125.632 324.05 129.387C328.061 133.056 330.066 138.518 330.066 145.771V166.507C330.066 173.334 328.061 178.752 324.05 182.763C320.039 186.688 314.066 188.651 306.13 188.651H279.378V226.155H263.25ZM311.506 138.091H279.378V174.699H311.506C312.871 174.699 313.554 174.016 313.554 172.651V140.139C313.554 138.774 312.871 138.091 311.506 138.091Z" fill="black" shape-rendering="crispEdges"/>
<path d="M211.043 123.511C219.087 123.511 225.214 125.338 229.331 129.081C233.457 132.832 235.479 138.428 235.479 145.771V154.719H218.095V140.651C218.095 139.996 217.94 139.596 217.719 139.361C217.503 139.132 217.144 138.976 216.547 138.976H189.923C189.326 138.976 188.967 139.132 188.751 139.361C188.53 139.596 188.375 139.996 188.375 140.651V163.947C188.375 164.553 188.526 164.915 188.74 165.13C188.955 165.344 189.317 165.495 189.923 165.495H209.111V178.399H189.155C188.55 178.399 188.187 178.55 187.973 178.765C187.758 178.979 187.607 179.342 187.607 179.947V210.155C187.607 210.761 187.758 211.123 187.973 211.338C188.187 211.552 188.55 211.703 189.155 211.703H217.315C217.92 211.703 218.283 211.552 218.497 211.338C218.712 211.123 218.863 210.761 218.863 210.155V188.651C218.863 181.489 220.761 176.122 224.658 172.665C228.545 169.132 234.538 167.415 242.531 167.415H247.899L247.895 167.92L247.767 182.64L247.763 183.135H237.795C237.189 183.135 236.827 183.286 236.612 183.501C236.398 183.716 236.247 184.078 236.247 184.684V204.779C236.247 211.965 234.122 217.574 229.813 221.531H229.812C225.592 225.4 219.479 227.295 211.555 227.295H194.915C186.99 227.295 180.837 225.4 176.533 221.535L176.528 221.531C172.22 217.574 170.095 211.965 170.095 204.779V188.651C170.095 184.365 170.918 180.753 172.594 177.842C174.116 175.198 176.327 173.161 179.208 171.726C176.66 170.282 174.665 168.374 173.238 165.996L173.234 165.99C171.644 163.251 170.863 159.917 170.863 156.011V145.771C170.863 138.427 172.896 132.831 177.044 129.08C181.182 125.338 187.34 123.511 195.427 123.511H211.043ZM127.744 123.512C135.746 123.34 141.864 125.144 146.005 129.015C150.238 132.807 152.316 138.424 152.316 145.771V163.947C152.316 169.436 151.127 173.969 148.709 177.509C146.443 180.826 143.124 183.23 138.788 184.736C141.126 186.715 143.054 189.996 144.607 194.5L155.743 225.988L155.979 226.655H138.657L138.542 226.315L125.742 188.556L125.741 188.554C125.493 187.809 125.234 187.42 125.02 187.259L124.963 187.216L124.92 187.159C124.875 187.099 124.777 187.018 124.565 186.953C124.352 186.888 124.054 186.847 123.656 186.847H101.628V226.655H84.5V124.158L84.9922 124.151L127.744 123.511V123.512ZM306.122 123.512C314.127 123.34 320.247 125.145 324.388 129.019L324.77 129.379C328.658 133.163 330.566 138.656 330.566 145.771V166.507C330.566 173.437 328.526 178.993 324.403 183.116L324.399 183.12C320.262 187.169 314.142 189.151 306.13 189.151H279.878V226.655H262.75V124.158L263.242 124.151L306.122 123.511V123.512ZM279.878 174.199H311.506C312.111 174.199 312.474 174.048 312.688 173.834C312.903 173.62 313.054 173.257 313.054 172.651V140.139C313.054 139.534 312.903 139.171 312.688 138.957C312.474 138.743 312.111 138.591 311.506 138.591H279.878V174.199ZM101.628 172.023H133.256C133.853 172.023 134.212 171.866 134.428 171.637C134.649 171.402 134.804 171.002 134.804 170.347V140.139C134.804 139.534 134.653 139.171 134.438 138.957C134.224 138.743 133.861 138.591 133.256 138.591H101.628V172.023Z" stroke="#C90E0E" stroke-opacity="0.5" shape-rendering="crispEdges"/>
</g>
</g>
</g>
</g>
<defs>
<filter id="filter0_d_30_123" x="0" y="0" width="408" height="408" filterUnits="userSpaceOnUse" color-interpolation-filters="sRGB">
<feFlood flood-opacity="0" result="BackgroundImageFix"/>
<feColorMatrix in="SourceAlpha" type="matrix" values="0 0 0 0 0 0 0 0 0 0 0 0 0 0 0 0 0 0 127 0" result="hardAlpha"/>
<feOffset dy="4"/>
<feGaussianBlur stdDeviation="2"/>
<feComposite in2="hardAlpha" operator="out"/>
<feColorMatrix type="matrix" values="0 0 0 0 0 0 0 0 0 0 0 0 0 0 0 0 0 0 0.25 0"/>
<feBlend mode="normal" in2="BackgroundImageFix" result="effect1_dropShadow_30_123"/>
<feBlend mode="normal" in="SourceGraphic" in2="effect1_dropShadow_30_123" result="shape"/>
</filter>
<filter id="filter1_d_30_123" x="75" y="232" width="255.066" height="112.795" filterUnits="userSpaceOnUse" color-interpolation-filters="sRGB">
<feFlood flood-opacity="0" result="BackgroundImageFix"/>
<feColorMatrix in="SourceAlpha" type="matrix" values="0 0 0 0 0 0 0 0 0 0 0 0 0 0 0 0 0 0 127 0" result="hardAlpha"/>
<feOffset dy="4"/>
<feGaussianBlur stdDeviation="2"/>
<feComposite in2="hardAlpha" operator="out"/>
<feColorMatrix type="matrix" values="0 0 0 0 0.319818 0 0 0 0 0.894837 0 0 0 0 0.965182 0 0 0 0.5 0"/>
<feBlend mode="normal" in2="BackgroundImageFix" result="effect1_dropShadow_30_123"/>
<feBlend mode="normal" in="SourceGraphic" in2="effect1_dropShadow_30_123" result="shape"/>
</filter>
<filter id="filter2_d_30_123" x="80" y="123" width="255.066" height="112.795" filterUnits="userSpaceOnUse" color-interpolation-filters="sRGB">
<feFlood flood-opacity="0" result="BackgroundImageFix"/>
<feColorMatrix in="SourceAlpha" type="matrix" values="0 0 0 0 0 0 0 0 0 0 0 0 0 0 0 0 0 0 127 0" result="hardAlpha"/>
<feOffset dy="4"/>
<feGaussianBlur stdDeviation="2"/>
<feComposite in2="hardAlpha" operator="out"/>
<feColorMatrix type="matrix" values="0 0 0 0 0.967849 0 0 0 0 0.00974247 0 0 0 0 0.00974247 0 0 0 0.5 0"/>
<feBlend mode="normal" in2="BackgroundImageFix" result="effect1_dropShadow_30_123"/>
<feBlend mode="normal" in="SourceGraphic" in2="effect1_dropShadow_30_123" result="shape"/>
</filter>
<filter id="filter3_d_30_123" x="80" y="123" width="255.066" height="112.795" filterUnits="userSpaceOnUse" color-interpolation-filters="sRGB">
<feFlood flood-opacity="0" result="BackgroundImageFix"/>
<feColorMatrix in="SourceAlpha" type="matrix" values="0 0 0 0 0 0 0 0 0 0 0 0 0 0 0 0 0 0 127 0" result="hardAlpha"/>
<feOffset dy="4"/>
<feGaussianBlur stdDeviation="2"/>
<feComposite in2="hardAlpha" operator="out"/>
<feColorMatrix type="matrix" values="0 0 0 0 0 0 0 0 0 0 0 0 0 0 0 0 0 0 0.25 0"/>
<feBlend mode="normal" in2="BackgroundImageFix" result="effect1_dropShadow_30_123"/>
<feBlend mode="normal" in="SourceGraphic" in2="effect1_dropShadow_30_123" result="shape"/>
</filter>
<clipPath id="clip0_30_123">
<rect width="400" height="400" fill="white" transform="translate(4)"/>
</clipPath>
</defs>
</svg>
