<svg width="467" height="304" viewBox="0 0 467 304" fill="none" xmlns="http://www.w3.org/2000/svg">
<path d="M0.5 290.602V2.92755C0.5 2.36558 0.947715 1.91 1.5 1.91C2.05228 1.91 2.5 2.36558 2.5 2.92755V290.602C2.4999 291.164 2.05222 291.62 1.5 291.62C0.947776 291.62 0.500099 291.164 0.5 290.602Z" fill="black" stroke="black" stroke-linecap="round"/>
<path d="M305.5 292.664V196.336C305.5 196.15 305.948 196 306.5 196C307.052 196 307.5 196.15 307.5 196.336V292.664C307.5 292.85 307.052 293 306.5 293C305.948 293 305.5 292.85 305.5 292.664Z" fill="black" stroke="black" stroke-linecap="round"/>
<g filter="url(#filter0_d_30_122)">
<path d="M361.655 0C384.589 5.14043e-05 403.431 4.13815 418.115 12.4883H418.114C432.856 20.722 443.797 31.8948 450.9 46.0049C457.428 58.9719 460.939 73.309 461.451 89H424.768C424.318 79.1069 422.198 70.1858 418.422 62.2236L418.418 62.2168L419.325 61.7959L418.418 62.2158C414.254 53.24 407.499 46.1969 398.108 41.083L398.102 41.0791C388.737 35.887 376.234 33.25 360.519 33.25H299.587V153.409H361.087C376.609 153.409 388.966 150.726 398.233 145.443C407.537 140.14 414.251 132.999 418.418 124.017L418.42 124.013C421.824 116.76 423.882 108.759 424.585 100H461.32C460.491 114.568 457.023 127.978 450.903 140.22L450.904 140.221C443.898 154.426 433.051 165.743 418.403 174.168L418.399 174.171C403.716 182.52 384.969 186.659 362.223 186.659H299.587V292.909H262.359V0H361.655ZM397.514 146.978C397.62 146.921 397.727 146.868 397.832 146.811L397.86 146.795C397.746 146.857 397.629 146.916 397.514 146.978Z" fill="black"/>
</g>
<g filter="url(#filter1_d_30_122)">
<path d="M107.796 0C130.626 4.51698e-05 149.454 3.89898 164.226 11.7627H164.227C178.974 19.5194 189.924 30.2189 197.034 43.8623C203.96 57.153 207.491 72.2072 207.651 89.002H170.992C170.847 77.9839 168.696 68.3628 164.571 60.1133C160.322 51.6147 153.531 45.0387 144.142 40.3906L144.135 40.3877C134.76 35.6539 122.29 33.25 106.659 33.25H45.7275V145.457H107.228C122.674 145.457 135.009 143.195 144.295 138.737L144.298 138.735C153.691 134.271 160.427 127.976 164.575 119.864L164.577 119.86C167.447 114.308 169.359 108.026 170.306 101.002H207.175C205.988 113.952 202.613 125.712 197.032 136.271C189.922 149.723 179.018 160.279 164.367 167.939L164.362 167.942C161.032 169.662 157.493 171.182 153.75 172.509L218.899 291.433L219.711 292.913H176.517L176.233 292.388L115.188 179.155C112.954 179.234 110.679 179.275 108.363 179.275H45.7275V292.913H8.5V0H107.796ZM168.911 68.2637C169.005 68.5646 169.096 68.8671 169.186 69.1709L168.912 68.2637C168.818 67.9627 168.722 67.6634 168.624 67.3652L168.911 68.2637ZM190.279 34.916C190.185 34.7878 190.089 34.6608 189.993 34.5332C190.089 34.6607 190.185 34.7878 190.279 34.916ZM189.485 33.8623C189.435 33.7967 189.387 33.7295 189.336 33.6641C189.293 33.6089 189.249 33.5551 189.206 33.5C189.3 33.6204 189.393 33.7413 189.485 33.8623ZM188.664 32.8125C188.576 32.7026 188.49 32.5918 188.401 32.4824C188.49 32.5918 188.576 32.7026 188.664 32.8125ZM187.645 31.5615C187.622 31.5347 187.601 31.5072 187.578 31.4805C187.475 31.3577 187.369 31.2373 187.266 31.1152C187.392 31.2639 187.519 31.4118 187.645 31.5615ZM186.854 30.6348C186.705 30.4618 186.554 30.2898 186.402 30.1182C186.554 30.2898 186.705 30.4618 186.854 30.6348ZM186.001 29.668C185.911 29.5675 185.822 29.4653 185.731 29.3652C185.684 29.3127 185.635 29.2614 185.587 29.209C185.726 29.3611 185.863 29.5147 186.001 29.668ZM184.645 28.1973C184.768 28.3272 184.89 28.4581 185.013 28.5889C184.933 28.5039 184.855 28.4176 184.775 28.333C184.732 28.2873 184.688 28.2428 184.645 28.1973ZM183.941 27.4678C183.774 27.2965 183.605 27.1268 183.436 26.957C183.605 27.1268 183.774 27.2965 183.941 27.4678ZM183.055 26.5771C182.968 26.4916 182.883 26.4045 182.796 26.3193C182.719 26.2437 182.639 26.1701 182.562 26.0947C182.727 26.2549 182.891 26.4156 183.055 26.5771ZM182.116 25.668C182.001 25.5584 181.888 25.4468 181.772 25.3379C181.729 25.2973 181.685 25.2582 181.642 25.2178C181.801 25.3669 181.958 25.5176 182.116 25.668ZM180.793 24.4346C180.666 24.3196 180.538 24.2061 180.41 24.0918C180.538 24.2061 180.666 24.3196 180.793 24.4346ZM179.82 23.5684C179.766 23.5211 179.713 23.4729 179.659 23.4258C179.563 23.3417 179.464 23.2595 179.367 23.1758C179.519 23.3063 179.67 23.4368 179.82 23.5684ZM178.869 22.751C178.769 22.6661 178.67 22.5795 178.569 22.4951C178.51 22.4451 178.449 22.3966 178.389 22.3467C178.55 22.4807 178.71 22.6159 178.869 22.751ZM177.239 21.4092C177.425 21.558 177.61 21.7082 177.794 21.8584C177.61 21.7082 177.425 21.558 177.239 21.4092ZM176.469 20.7998C176.42 20.7618 176.372 20.7225 176.323 20.6846C176.204 20.5919 176.082 20.5022 175.962 20.4102C176.131 20.5399 176.301 20.6689 176.469 20.7998ZM175.394 19.9766C175.318 19.9196 175.243 19.8614 175.167 19.8047C175.065 19.7288 174.962 19.6546 174.86 19.5791C175.039 19.711 175.217 19.8435 175.394 19.9766ZM174.532 19.3379C174.338 19.1957 174.143 19.0539 173.946 18.9131C174.143 19.0539 174.338 19.1957 174.532 19.3379ZM173.64 18.6943C173.423 18.5407 173.206 18.3883 172.987 18.2363C173.206 18.3883 173.423 18.5407 173.64 18.6943ZM172.735 18.0615C172.477 17.8835 172.218 17.7069 171.957 17.5312C172.218 17.7069 172.477 17.8836 172.735 18.0615ZM171.831 17.4453C171.564 17.2659 171.294 17.0882 171.023 16.9111C171.294 17.0881 171.564 17.2659 171.831 17.4453ZM170.848 16.7959C170.593 16.6305 170.337 16.467 170.08 16.3037C170.337 16.467 170.593 16.6305 170.848 16.7959ZM167.322 14.624C168.188 15.1295 169.039 15.6451 169.875 16.1729C169.181 15.7349 168.478 15.3035 167.764 14.8809C167.617 14.7942 167.469 14.71 167.322 14.624ZM166.722 14.2754C166.509 14.1534 166.295 14.0328 166.081 13.9121C166.295 14.0328 166.509 14.1534 166.722 14.2754ZM165.581 13.6328C165.427 13.5472 165.273 13.4599 165.118 13.375C165.042 13.3334 164.965 13.2934 164.889 13.252C165.121 13.378 165.351 13.5053 165.581 13.6328ZM163.762 12.6484C163.938 12.741 164.112 12.8353 164.287 12.9287C164.112 12.8353 163.938 12.7401 163.762 12.6475C163.713 12.6213 163.663 12.5964 163.613 12.5703C163.663 12.5964 163.713 12.6222 163.762 12.6484Z" fill="black"/>
</g>
<g filter="url(#filter2_d_30_122)">
<path d="M216.37 202.18C214.162 202.18 212.47 201.652 211.294 200.596C210.118 199.516 209.53 197.98 209.53 195.988V191.452C209.53 189.076 210.442 187.492 212.266 186.7C211.45 186.292 210.826 185.728 210.394 185.008C209.962 184.264 209.746 183.352 209.746 182.272V179.392C209.746 175.312 212.002 173.272 216.514 173.272H220.906C225.394 173.272 227.638 175.312 227.638 179.392V181.768H223.03V177.952C223.03 177.544 222.838 177.34 222.454 177.34H214.966C214.582 177.34 214.39 177.544 214.39 177.952V184.504C214.39 184.888 214.582 185.08 214.966 185.08H220.222V188.428H214.75C214.366 188.428 214.174 188.62 214.174 189.004V197.5C214.174 197.884 214.366 198.076 214.75 198.076H222.67C223.054 198.076 223.246 197.884 223.246 197.5V191.452C223.246 189.46 223.774 187.996 224.83 187.06C225.886 186.1 227.53 185.62 229.762 185.62H231.13L231.094 189.76H228.43C228.046 189.76 227.854 189.952 227.854 190.336V195.988C227.854 197.98 227.266 199.516 226.09 200.596C224.938 201.652 223.258 202.18 221.05 202.18H216.37Z" fill="black"/>
</g>
<defs>
<filter id="filter0_d_30_122" x="259.359" y="0" width="207.092" height="302.909" filterUnits="userSpaceOnUse" color-interpolation-filters="sRGB">
<feFlood flood-opacity="0" result="BackgroundImageFix"/>
<feColorMatrix in="SourceAlpha" type="matrix" values="0 0 0 0 0 0 0 0 0 0 0 0 0 0 0 0 0 0 127 0" result="hardAlpha"/>
<feOffset dx="1" dy="6"/>
<feGaussianBlur stdDeviation="2"/>
<feComposite in2="hardAlpha" operator="out"/>
<feColorMatrix type="matrix" values="0 0 0 0 0.964449 0 0 0 0 0.02159 0 0 0 0 0.02159 0 0 0 0.5 0"/>
<feBlend mode="normal" in2="BackgroundImageFix" result="effect1_dropShadow_30_122"/>
<feBlend mode="normal" in="SourceGraphic" in2="effect1_dropShadow_30_122" result="shape"/>
</filter>
<filter id="filter1_d_30_122" x="4.5" y="0" width="219.211" height="303.913" filterUnits="userSpaceOnUse" color-interpolation-filters="sRGB">
<feFlood flood-opacity="0" result="BackgroundImageFix"/>
<feColorMatrix in="SourceAlpha" type="matrix" values="0 0 0 0 0 0 0 0 0 0 0 0 0 0 0 0 0 0 127 0" result="hardAlpha"/>
<feOffset dy="7"/>
<feGaussianBlur stdDeviation="2"/>
<feComposite in2="hardAlpha" operator="out"/>
<feColorMatrix type="matrix" values="0 0 0 0 0.0534352 0 0 0 0 0.753779 0 0 0 0 0.947491 0 0 0 0.5 0"/>
<feBlend mode="normal" in2="BackgroundImageFix" result="effect1_dropShadow_30_122"/>
<feBlend mode="normal" in="SourceGraphic" in2="effect1_dropShadow_30_122" result="shape"/>
</filter>
<filter id="filter2_d_30_122" x="205.53" y="173.272" width="29.6001" height="36.908" filterUnits="userSpaceOnUse" color-interpolation-filters="sRGB">
<feFlood flood-opacity="0" result="BackgroundImageFix"/>
<feColorMatrix in="SourceAlpha" type="matrix" values="0 0 0 0 0 0 0 0 0 0 0 0 0 0 0 0 0 0 127 0" result="hardAlpha"/>
<feOffset dy="4"/>
<feGaussianBlur stdDeviation="2"/>
<feComposite in2="hardAlpha" operator="out"/>
<feColorMatrix type="matrix" values="0 0 0 0 0.342417 0 0 0 0 0.303904 0 0 0 0 0.303904 0 0 0 0.25 0"/>
<feBlend mode="normal" in2="BackgroundImageFix" result="effect1_dropShadow_30_122"/>
<feBlend mode="normal" in="SourceGraphic" in2="effect1_dropShadow_30_122" result="shape"/>
</filter>
</defs>
</svg>
