<svg width="160" height="160" viewBox="0 0 160 160" fill="none" xmlns="http://www.w3.org/2000/svg">
  <rect width="160" height="160" rx="36" fill="url(#bg)"/>
  <circle cx="80" cy="58" r="28" fill="#F4C7A1"/>
  <path d="M46 132C46 106.49 61.2223 92 80 92C98.7777 92 114 106.49 114 132V160H46V132Z" fill="#0F172A"/>
  <path d="M56 56C56 37.2223 68.9837 24 80 24C91.0163 24 104 37.2223 104 56V68H56V56Z" fill="#7DD3FC"/>
  <path d="M48 70C48 61.1634 55.1634 54 64 54H66V92H64C55.1634 92 48 84.8366 48 76V70Z" fill="#0F172A"/>
  <path d="M112 70C112 61.1634 104.837 54 96 54H94V92H96C104.837 92 112 84.8366 112 76V70Z" fill="#0F172A"/>
  <rect x="70" y="122" width="20" height="8" rx="4" fill="#7DD3FC"/>
  <defs>
    <linearGradient id="bg" x1="18" y1="16" x2="145" y2="150" gradientUnits="userSpaceOnUse">
      <stop stop-color="#E0F2FE"/>
      <stop offset="1" stop-color="#FFFFFF"/>
    </linearGradient>
  </defs>
</svg>
