<svg width="64" height="64" viewBox="0 0 64 64" fill="none" xmlns="http://www.w3.org/2000/svg">
  <path d="M32 10C19.85 10 10 19.7 10 31.67C10 36.02 11.32 40.06 13.59 43.44L11.17 54L22.16 51.7C25.32 53.71 28.99 54.85 32 54.85C44.15 54.85 54 45.15 54 33.18C54 21.21 44.15 10 32 10Z" fill="white"/>
  <path d="M25.58 22.73C24.92 21.28 24.22 21.25 23.61 21.22C23.11 21.19 22.54 21.19 21.97 21.19C21.4 21.19 20.48 21.41 19.7 22.27C18.92 23.12 16.73 25.11 16.73 29.17C16.73 33.23 19.77 37.16 20.2 37.72C20.63 38.28 26.17 47.1 34.91 50.25C42.17 52.87 43.65 52.36 45.23 52.21C46.81 52.05 50.34 50.22 51.05 48.17C51.76 46.12 51.76 44.36 51.54 43.98C51.33 43.6 50.76 43.38 49.91 42.95C49.05 42.52 44.87 40.47 44.09 40.19C43.31 39.9 42.74 39.76 42.17 40.62C41.6 41.47 39.98 43.38 39.48 43.94C38.98 44.51 38.48 44.58 37.62 44.15C36.77 43.73 34 42.83 30.72 39.93C28.17 37.68 26.45 34.9 25.95 34.04C25.45 33.19 25.9 32.72 26.33 32.29C26.71 31.92 27.18 31.33 27.6 30.83C28.03 30.33 28.17 29.97 28.46 29.4C28.74 28.83 28.6 28.33 28.39 27.9C28.17 27.47 26.53 23.27 25.58 22.73Z" fill="#25D366"/>
</svg>
